<svg width="105" height="36" viewBox="0 0 105 36" fill="none" xmlns="http://www.w3.org/2000/svg">
<path d="M17.5263 0H18.5132L19.2829 0.0394737L20.1513 0.118421L20.8816 0.217105L21.75 0.375L22.3618 0.513158L23.2303 0.75L23.9408 0.986842L24.4934 1.18421L25.125 1.44079L25.8158 1.75658L26.5263 2.11184L27 2.38816L27.4145 2.625L27.9079 2.94079L28.3421 3.23684L28.6974 3.49342L29.2105 3.88816L29.4276 4.06579L29.6842 4.28289L29.9605 4.51974L30.4342 4.95395L31.1842 5.70395L31.3224 5.86184L31.5395 6.09868L31.7171 6.31579L31.9737 6.61184L32.2303 6.94737L32.4474 7.22368L32.7039 7.57895L33 8.01316L33.3158 8.50658L33.5526 8.90132L33.8092 9.35526L34.0461 9.80921L34.3224 10.3618L34.6184 11.0329L34.8947 11.7434L35.2105 12.6711L35.4474 13.5197L35.6645 14.4868L35.8026 15.2961L35.9013 16.0855L35.9803 17.0724L36 17.7237V18.2763L35.9803 18.9276L35.9211 19.7171L35.8618 20.25L35.7829 20.8224L35.6645 21.5132L35.5066 22.2434L35.2895 23.0526L35.0724 23.7434L34.875 24.3158L34.5987 25.0066L34.2829 25.7171L33.8487 26.5855L33.5724 27.0592L33.4145 27.3355L33.1776 27.7105L32.9211 28.1053L32.6842 28.4408L32.4276 28.7961L32.2303 29.0526L31.9737 29.3684L31.8158 29.5658L31.5592 29.8618L31.2039 30.2566L30.9276 30.5526L30.375 31.1053L30.2171 31.2434L29.9408 31.5L29.7237 31.6776L29.5263 31.8553L29.25 32.0724L28.9539 32.3092L28.6382 32.5461L28.2434 32.8224L27.8289 33.0987L27.3947 33.375L26.8816 33.6711L26.3092 33.9868L25.7171 34.2829L25.0066 34.5987L24.2961 34.875L23.5658 35.1316L22.7566 35.3684L21.9671 35.5658L21.1579 35.7237L20.5263 35.8224L19.6579 35.9211L18.8487 35.9803L18.2763 36H17.6842L17.0921 35.9803L16.0855 35.9013L15.2961 35.8026L14.3882 35.6447L13.4605 35.4276L12.75 35.2303L11.9605 34.9737L11.1316 34.6579L10.5987 34.4211L10.125 34.2039L9.45395 33.8684L8.98026 33.5921L8.625 33.3947L8.23026 33.1382L7.95395 32.9605L7.28289 32.4868L7.00658 32.2697L6.75 32.0724L6.43421 31.8158L6.23684 31.6382L6.01974 31.4605L5.70395 31.1645L5.36842 30.8487L4.97368 30.4539L4.83553 30.2961L4.63816 30.0987L4.46053 29.8816L4.24342 29.6447L4.06579 29.4276L3.80921 29.1118L3.57237 28.7961L3.29605 28.4211L2.98026 27.9671L2.78289 27.6513L2.54605 27.2763L2.28947 26.8224L2.09211 26.4671L1.75658 25.8158L1.48026 25.2039L1.24342 24.6316L0.986842 23.9408L0.75 23.2105L0.513158 22.3421L0.335526 21.5329L0.197368 20.7434L0.0789474 19.7961L0.0197368 19.0066L0 18.5526V17.4079L0.0394737 16.6579L0.0986842 16.0066L0.197368 15.2368L0.355263 14.3684L0.532895 13.5789L0.671053 13.0658L0.828947 12.5329L1.125 11.6645L1.36184 11.0724L1.55921 10.6184L1.81579 10.0658L2.05263 9.5921L2.28947 9.15789L2.60526 8.625L2.84211 8.25L3.09868 7.85526L3.35526 7.5L3.55263 7.22368L3.75 6.9671L3.98684 6.67105L4.125 6.49342L4.30263 6.29605L4.48026 6.07895L4.69737 5.8421L4.77632 5.74342H4.81579L4.85526 5.66447L5.17105 5.34868L5.30921 5.19079L5.54605 4.97368L5.72368 4.79605L5.88158 4.65789L6.13816 4.42105L6.35526 4.24342L6.63158 4.00658L6.88816 3.80921L7.16447 3.59211L7.51974 3.33553L7.91447 3.05921L8.36842 2.76316L8.78289 2.50658L9.27632 2.23026L9.49342 2.11184L9.94737 1.875L10.2632 1.71711L10.9539 1.40132L11.6645 1.125L12.0395 0.986842L12.7105 0.769737L13.5 0.552632L14.3487 0.355263L15.3553 0.177632L16.2039 0.0789474L16.9934 0.0197368L17.5263 0Z" fill="black"/>
<mask id="path-2-inside-1_1597_3965" fill="white">
<path d="M12.1166 9.78906H23.86L24.2942 9.84827L24.7087 9.96669L25.0245 10.1049L25.3403 10.3022L25.656 10.5588L25.8929 10.8154L26.0705 11.072L26.2087 11.3088L26.3271 11.6049L26.4455 12.0193L26.7416 13.4206L26.8995 14.1509L26.9192 14.1904L27.5903 14.2101L27.5705 13.5588V13.1838L27.61 13.0456L27.7087 12.947L27.8271 12.8877L30.1758 12.868L30.7284 12.8877L30.8468 12.9667L30.9258 13.0654L30.9455 13.1641V14.9601L30.8863 15.118L30.7876 15.197L30.4718 15.2759L29.3074 15.4733L27.985 15.6904H27.8271L27.6692 15.6114L27.61 15.5325L27.5903 15.4733V14.8417H27.0376L27.1955 15.4733L27.3731 16.243L27.4718 16.322L27.7087 16.4601L27.985 16.6575L28.2218 16.8746L28.4192 17.072L28.656 17.4075L28.8139 17.6838L28.9718 18.0588L29.0705 18.4535L29.1297 18.8877L29.3074 20.9009L29.3468 21.5917V24.9075L29.2876 25.2825L29.2087 25.4799L29.0705 25.697L28.8337 25.9338L28.656 26.0522L28.3995 26.1509L28.2416 26.1904L26.031 26.2101H25.4389L25.1626 26.1706L24.8468 26.0522L24.6297 25.9141L24.4324 25.7167L24.2745 25.4404L24.1955 25.2233L24.156 24.9667L24.1363 24.3351H11.86L11.8403 24.947L11.8008 25.2233L11.6824 25.5193L11.485 25.7956L11.3271 25.9338L11.11 26.072L10.8337 26.1706L10.5376 26.2101H7.93236L7.67578 26.1706L7.39947 26.072L7.2021 25.9535L7.00473 25.7759L6.88631 25.618L6.76789 25.3812L6.70868 25.1443L6.68894 24.9667L6.6692 24.0588V21.8088L6.70868 20.9206L6.88631 18.947L6.94552 18.493L7.0442 18.0983L7.14289 17.8417L7.30078 17.5259L7.49815 17.2299L7.67578 17.0127L7.97183 16.7167L8.3271 16.4601L8.64289 16.2825L8.7021 16.0456L8.93894 14.8417L8.42578 14.8614V15.3943L8.34683 15.572L8.20868 15.6706L8.07052 15.6904L7.22183 15.5522L5.42578 15.2562L5.1692 15.1772L5.07052 15.0588L5.05078 14.9799V13.0851L5.10999 12.9864L5.26789 12.8877L5.44552 12.868H7.99157L8.20868 12.8877L8.3271 12.9667L8.40604 13.0851L8.42578 13.4009V14.2101L9.0771 14.1904L9.17578 13.7759L9.47183 12.3943L9.62973 11.7233L9.74815 11.4272L9.88631 11.1509L10.0442 10.9141L10.281 10.6377L10.4192 10.4996L10.6955 10.2825L11.0508 10.0654L11.4455 9.90748L11.781 9.82854L12.1166 9.78906Z"/>
</mask>
<path d="M12.1166 9.78906H23.86L24.2942 9.84827L24.7087 9.96669L25.0245 10.1049L25.3403 10.3022L25.656 10.5588L25.8929 10.8154L26.0705 11.072L26.2087 11.3088L26.3271 11.6049L26.4455 12.0193L26.7416 13.4206L26.8995 14.1509L26.9192 14.1904L27.5903 14.2101L27.5705 13.5588V13.1838L27.61 13.0456L27.7087 12.947L27.8271 12.8877L30.1758 12.868L30.7284 12.8877L30.8468 12.9667L30.9258 13.0654L30.9455 13.1641V14.9601L30.8863 15.118L30.7876 15.197L30.4718 15.2759L29.3074 15.4733L27.985 15.6904H27.8271L27.6692 15.6114L27.61 15.5325L27.5903 15.4733V14.8417H27.0376L27.1955 15.4733L27.3731 16.243L27.4718 16.322L27.7087 16.4601L27.985 16.6575L28.2218 16.8746L28.4192 17.072L28.656 17.4075L28.8139 17.6838L28.9718 18.0588L29.0705 18.4535L29.1297 18.8877L29.3074 20.9009L29.3468 21.5917V24.9075L29.2876 25.2825L29.2087 25.4799L29.0705 25.697L28.8337 25.9338L28.656 26.0522L28.3995 26.1509L28.2416 26.1904L26.031 26.2101H25.4389L25.1626 26.1706L24.8468 26.0522L24.6297 25.9141L24.4324 25.7167L24.2745 25.4404L24.1955 25.2233L24.156 24.9667L24.1363 24.3351H11.86L11.8403 24.947L11.8008 25.2233L11.6824 25.5193L11.485 25.7956L11.3271 25.9338L11.11 26.072L10.8337 26.1706L10.5376 26.2101H7.93236L7.67578 26.1706L7.39947 26.072L7.2021 25.9535L7.00473 25.7759L6.88631 25.618L6.76789 25.3812L6.70868 25.1443L6.68894 24.9667L6.6692 24.0588V21.8088L6.70868 20.9206L6.88631 18.947L6.94552 18.493L7.0442 18.0983L7.14289 17.8417L7.30078 17.5259L7.49815 17.2299L7.67578 17.0127L7.97183 16.7167L8.3271 16.4601L8.64289 16.2825L8.7021 16.0456L8.93894 14.8417L8.42578 14.8614V15.3943L8.34683 15.572L8.20868 15.6706L8.07052 15.6904L7.22183 15.5522L5.42578 15.2562L5.1692 15.1772L5.07052 15.0588L5.05078 14.9799V13.0851L5.10999 12.9864L5.26789 12.8877L5.44552 12.868H7.99157L8.20868 12.8877L8.3271 12.9667L8.40604 13.0851L8.42578 13.4009V14.2101L9.0771 14.1904L9.17578 13.7759L9.47183 12.3943L9.62973 11.7233L9.74815 11.4272L9.88631 11.1509L10.0442 10.9141L10.281 10.6377L10.4192 10.4996L10.6955 10.2825L11.0508 10.0654L11.4455 9.90748L11.781 9.82854L12.1166 9.78906Z" fill="black" stroke="black" stroke-width="4" mask="url(#path-2-inside-1_1597_3965)"/>
<path d="M26.6299 23.7871L26.5635 23.6719L26.4844 23.5342L26.4199 23.4209L26.3076 23.3535L26.209 23.2939L26.1182 23.2402L26.0137 23.2266L25.8564 23.207L25.8262 23.2031H25.7959L22.1025 23.1855L22.0898 22.2354V22.1895L22.0801 22.1445L22.041 21.9473L22.0059 21.7744L21.8711 21.6611L21.752 21.5625L21.624 21.4561L21.458 21.4473L21.083 21.4277L21.0703 21.4268H14.7979L14.7754 21.4287L14.5576 21.4482L14.4492 21.458L14.3555 21.5127L14.2168 21.5918L14.127 21.6426L14.0654 21.7256L14.0059 21.8047L13.9375 21.8955L13.916 22.0068L13.8955 22.1055L13.8857 22.1533V23.1855L10.0811 23.2031H9.99121L9.9082 23.2354L9.75 23.2939L9.60742 23.3477L9.51855 23.4717L9.41992 23.6104L9.32715 23.7402V24.2109L9.39258 24.3262L9.47168 24.4639L9.53906 24.583L9.6582 24.6504L9.7959 24.7295L9.90723 24.793L10.0352 24.7949L10.708 24.8057V24.8975L10.6836 24.9629L10.6436 25.0166L10.5938 25.0596L10.5576 25.0781H7.9873L7.94141 25.0674L7.93945 25.0664L7.82715 24.8408H7.82031V21.5908L7.8584 20.8262L7.99512 19.2764L8.05176 18.7441L8.11621 18.458L8.19434 18.2373L8.33594 17.9707L8.47656 17.7891H8.64746L8.73145 17.5361L8.89746 17.4111L9.12207 17.2822L9.33398 17.1914L9.64551 17.1094L9.91211 17.0781H26.167L26.4453 17.124L26.7275 17.2188L26.9941 17.3525L27.207 17.4902L27.3623 17.6299L27.4414 17.709L27.5645 17.8467L27.708 18.0703L27.8359 18.3271L27.9287 18.6211L27.9814 18.9854L28.1562 20.9648V20.9658L28.1953 21.6904V24.8574L28.1787 24.9404L28.1582 24.9814L28.124 25.0215L28.0498 25.0713L28.0332 25.0781H25.4082L25.3662 25.0625L25.2822 24.9863L25.248 24.8047L25.7842 24.7949L25.8281 24.7939L25.8721 24.7852L26.0693 24.7461L26.1943 24.7207L26.292 24.6396L26.4102 24.541L26.4902 24.4746L26.5371 24.3809L26.5771 24.3018L26.6299 24.1963V23.7871Z" fill="white" stroke="white"/>
<path d="M23.2885 10.3906H23.7819L24.1174 10.4301L24.453 10.5288L24.7688 10.6867L24.9859 10.8248L25.1832 10.9827L25.3609 11.1604L25.5385 11.4169L25.6964 11.713L25.8148 12.1077L25.9924 12.9367L26.5056 15.384L26.624 15.9367L26.2293 15.9564H24.749L9.37402 15.9367L9.39376 15.759L10.0845 12.463L10.203 11.9498L10.3214 11.634L10.4595 11.3775L10.6569 11.1209L10.8938 10.884L11.0911 10.7459L11.2688 10.6472L11.4267 10.5683L11.703 10.4696L12.0188 10.4104L23.2885 10.3906Z" fill="white"/>
<path d="M26.4463 19.1719L26.5479 19.1924L26.5928 19.2109L26.6455 19.248L26.6895 19.3086L26.7451 19.4424L26.7686 19.5654V19.7617L26.7383 19.8975L26.6797 20.0215L26.6299 20.082L26.6074 20.1016L26.585 20.1143L26.4756 20.1484L26.4492 20.1523H23.5713L23.4951 20.1357L23.4023 20.0957L23.3379 20.0508L23.2871 20.0049L23.2334 19.9209L23.2031 19.8438V19.7969L23.5029 19.7246L24.9287 19.4502L26.3389 19.1777L26.3809 19.1719H26.4463Z" fill="black" stroke="black" stroke-width="2"/>
<path d="M9.87988 19.2188L10.4863 19.3232L11.998 19.6133V19.6143L12.9385 19.8018L12.998 19.8203L12.9883 19.8623L12.9258 19.9854L12.8701 20.0557L12.833 20.0928L12.7617 20.1367L12.7236 20.1504L12.6777 20.1592H9.80176L9.70898 20.1445L9.60449 20.1094L9.58789 20.0996L9.56152 20.0723L9.50586 19.9756L9.46777 19.876L9.44434 19.7578V19.5918L9.46777 19.4668L9.51562 19.3477L9.54492 19.3018L9.59668 19.25L9.62891 19.2305L9.6582 19.2188H9.87988Z" fill="black" stroke="black" stroke-width="2"/>
<mask id="path-7-inside-2_1597_3965" fill="white">
<path d="M15.0363 22.5312H20.9574L20.9771 22.551V23.676H18.0067H15.0363L15.0166 23.6562V22.551L15.0363 22.5312Z"/>
</mask>
<path d="M15.0363 22.5312H20.9574L20.9771 22.551V23.676H18.0067H15.0363L15.0166 23.6562V22.551L15.0363 22.5312Z" fill="black"/>
<path d="M15.0363 22.5312V20.5312H14.2079L13.6221 21.117L15.0363 22.5312ZM20.9574 22.5312L22.3716 21.117L21.7858 20.5312H20.9574V22.5312ZM20.9771 22.551H22.9771V21.7226L22.3914 21.1368L20.9771 22.551ZM20.9771 23.676V25.676H22.9771V23.676H20.9771ZM15.0363 23.676L13.6221 25.0902L14.2079 25.676H15.0363V23.676ZM15.0166 23.6562H13.0166V24.4847L13.6024 25.0705L15.0166 23.6562ZM15.0166 22.551L13.6024 21.1368L13.0166 21.7226V22.551H15.0166ZM15.0363 24.5312H20.9574V20.5312H15.0363V24.5312ZM19.5432 23.9455L19.5629 23.9652L22.3914 21.1368L22.3716 21.117L19.5432 23.9455ZM18.9771 22.551V23.676H22.9771V22.551H18.9771ZM16.4506 22.2618L16.4308 22.242L13.6024 25.0705L13.6221 25.0902L16.4506 22.2618ZM17.0166 23.6562V22.551H13.0166V23.6562H17.0166ZM16.4308 23.9652L16.4506 23.9455L13.6221 21.117L13.6024 21.1368L16.4308 23.9652ZM20.9771 21.676H18.0067V25.676H20.9771V21.676ZM18.0067 21.676H15.0363V25.676H18.0067V21.676Z" fill="black" mask="url(#path-7-inside-2_1597_3965)"/>
<mask id="path-9-inside-3_1597_3965" fill="white">
<path d="M26.3452 18.7734L26.5623 18.7932L26.7991 18.8919L26.957 19.03L27.0952 19.2471L27.1741 19.5037V19.8392L27.0952 20.0958L26.957 20.2932L26.7991 20.4313L26.6215 20.5103L26.5426 20.53H23.4439L23.2465 20.4511L23.0097 20.234L22.8715 20.0366L22.832 19.9379V19.6813L22.9307 19.5432L23.0886 19.4642L23.3847 19.3853L24.9241 19.0695L26.2268 18.7932L26.3452 18.7734Z"/>
</mask>
<path d="M26.3452 18.7734L26.5623 18.7932L26.7991 18.8919L26.957 19.03L27.0952 19.2471L27.1741 19.5037V19.8392L27.0952 20.0958L26.957 20.2932L26.7991 20.4313L26.6215 20.5103L26.5426 20.53H23.4439L23.2465 20.4511L23.0097 20.234L22.8715 20.0366L22.832 19.9379V19.6813L22.9307 19.5432L23.0886 19.4642L23.3847 19.3853L24.9241 19.0695L26.2268 18.7932L26.3452 18.7734Z" fill="black"/>
<path d="M26.3452 18.7734L26.5263 16.7817L26.2701 16.7584L26.0164 16.8006L26.3452 18.7734ZM26.5623 18.7932L27.3315 16.947L27.0486 16.8291L26.7434 16.8014L26.5623 18.7932ZM26.7991 18.8919L28.1161 17.3867L27.8701 17.1714L27.5684 17.0457L26.7991 18.8919ZM26.957 19.03L28.6444 17.9563L28.4902 17.714L28.274 17.5249L26.957 19.03ZM27.0952 19.2471L29.0067 18.659L28.9274 18.401L28.7825 18.1734L27.0952 19.2471ZM27.1741 19.5037H29.1741V19.203L29.0857 18.9155L27.1741 19.5037ZM27.1741 19.8392L29.0857 20.4274L29.1741 20.14V19.8392H27.1741ZM27.0952 20.0958L28.7337 21.2427L28.9142 20.9848L29.0067 20.684L27.0952 20.0958ZM26.957 20.2932L28.274 21.7983L28.4565 21.6387L28.5955 21.4401L26.957 20.2932ZM26.7991 20.4313L27.6114 22.259L27.8882 22.1359L28.1161 21.9365L26.7991 20.4313ZM26.6215 20.5103L27.1066 22.4506L27.2751 22.4084L27.4338 22.3379L26.6215 20.5103ZM26.5426 20.53V22.53H26.7888L27.0276 22.4703L26.5426 20.53ZM23.4439 20.53L22.7011 22.387L23.0587 22.53H23.4439V20.53ZM23.2465 20.4511L21.8951 21.9254L22.1644 22.1723L22.5037 22.308L23.2465 20.4511ZM23.0097 20.234L21.3712 21.3809L21.4968 21.5603L21.6582 21.7083L23.0097 20.234ZM22.8715 20.0366L21.0146 20.7794L21.1004 20.9941L21.233 21.1835L22.8715 20.0366ZM22.832 19.9379H20.832V20.3231L20.9751 20.6807L22.832 19.9379ZM22.832 19.6813L21.2046 18.5189L20.832 19.0404V19.6813H22.832ZM22.9307 19.5432L22.0363 17.7543L21.592 17.9765L21.3032 18.3807L22.9307 19.5432ZM23.0886 19.4642L22.5733 17.5318L22.3764 17.5843L22.1942 17.6754L23.0886 19.4642ZM23.3847 19.3853L22.9828 17.4261L22.9257 17.4378L22.8693 17.4528L23.3847 19.3853ZM24.9241 19.0695L25.326 21.0287L25.3391 21.026L24.9241 19.0695ZM26.2268 18.7932L25.898 16.8204L25.8547 16.8276L25.8118 16.8367L26.2268 18.7932ZM26.1641 20.7652L26.3812 20.785L26.7434 16.8014L26.5263 16.7817L26.1641 20.7652ZM25.7931 20.6393L26.0299 20.738L27.5684 17.0457L27.3315 16.947L25.7931 20.6393ZM25.4821 20.397L25.64 20.5352L28.274 17.5249L28.1161 17.3867L25.4821 20.397ZM25.2697 20.1038L25.4079 20.3209L28.7825 18.1734L28.6444 17.9563L25.2697 20.1038ZM25.1836 19.8353L25.2626 20.0919L29.0857 18.9155L29.0067 18.659L25.1836 19.8353ZM25.1741 19.5037V19.8392H29.1741V19.5037H25.1741ZM25.2626 19.2511L25.1836 19.5076L29.0067 20.684L29.0857 20.4274L25.2626 19.2511ZM25.4567 18.9489L25.3186 19.1462L28.5955 21.4401L28.7337 21.2427L25.4567 18.9489ZM25.64 18.788L25.4821 18.9262L28.1161 21.9365L28.274 21.7983L25.64 18.788ZM25.9869 18.6037L25.8092 18.6827L27.4338 22.3379L27.6114 22.259L25.9869 18.6037ZM26.1364 18.57L26.0575 18.5897L27.0276 22.4703L27.1066 22.4506L26.1364 18.57ZM26.5426 18.53H23.4439V22.53H26.5426V18.53ZM24.1867 18.6731L23.9893 18.5941L22.5037 22.308L22.7011 22.387L24.1867 18.6731ZM24.598 18.9768L24.3611 18.7597L21.6582 21.7083L21.8951 21.9254L24.598 18.9768ZM24.6481 19.087L24.51 18.8897L21.233 21.1835L21.3712 21.3809L24.6481 19.087ZM24.7285 19.2938L24.689 19.1951L20.9751 20.6807L21.0146 20.7794L24.7285 19.2938ZM24.832 19.9379V19.6813H20.832V19.9379H24.832ZM24.4595 20.8438L24.5582 20.7057L21.3032 18.3807L21.2046 18.5189L24.4595 20.8438ZM23.8251 21.332L23.983 21.2531L22.1942 17.6754L22.0363 17.7543L23.8251 21.332ZM23.6039 21.3967L23.9 21.3177L22.8693 17.4528L22.5733 17.5318L23.6039 21.3967ZM23.7866 21.3445L25.326 21.0287L24.5222 17.1103L22.9828 17.4261L23.7866 21.3445ZM25.3391 21.026L26.6418 20.7496L25.8118 16.8367L24.5091 17.113L25.3391 21.026ZM26.5556 20.766L26.674 20.7462L26.0164 16.8006L25.898 16.8204L26.5556 20.766Z" fill="black" mask="url(#path-9-inside-3_1597_3965)"/>
<mask id="path-11-inside-4_1597_3965" fill="white">
<path d="M9.64875 18.8047H9.96454L12.0172 19.1994L12.9843 19.3968L13.1816 19.456L13.3001 19.535L13.3987 19.6731L13.4185 19.7323V19.8705L13.3395 20.0481L13.2211 20.2257L13.0632 20.3836L12.8264 20.5021L12.7474 20.5218H9.66848L9.47111 20.4428L9.29348 20.3047L9.15532 20.1073L9.07638 19.8902L9.05664 19.7915V19.535L9.11585 19.2981L9.23427 19.0613L9.39217 18.9231L9.58954 18.8244L9.64875 18.8047Z"/>
</mask>
<path d="M9.64875 18.8047H9.96454L12.0172 19.1994L12.9843 19.3968L13.1816 19.456L13.3001 19.535L13.3987 19.6731L13.4185 19.7323V19.8705L13.3395 20.0481L13.2211 20.2257L13.0632 20.3836L12.8264 20.5021L12.7474 20.5218H9.66848L9.47111 20.4428L9.29348 20.3047L9.15532 20.1073L9.07638 19.8902L9.05664 19.7915V19.535L9.11585 19.2981L9.23427 19.0613L9.39217 18.9231L9.58954 18.8244L9.64875 18.8047Z" fill="white"/>
<path d="M9.64875 18.8047V16.8047H9.32419L9.01629 16.9073L9.64875 18.8047ZM9.96454 18.8047L10.3422 16.8407L10.1551 16.8047H9.96454V18.8047ZM12.0172 19.1994L12.4171 17.2398L12.406 17.2376L12.3949 17.2354L12.0172 19.1994ZM12.9843 19.3968L13.559 17.4811L13.4726 17.4552L13.3842 17.4372L12.9843 19.3968ZM13.1816 19.456L14.291 17.7919L14.0425 17.6262L13.7563 17.5404L13.1816 19.456ZM13.3001 19.535L14.9275 18.3725L14.7145 18.0742L14.4095 17.8709L13.3001 19.535ZM13.3987 19.6731L15.2961 19.0407L15.201 18.7554L15.0262 18.5106L13.3987 19.6731ZM13.4185 19.7323H15.4185V19.4078L15.3158 19.0999L13.4185 19.7323ZM13.4185 19.8705L15.2461 20.6828L15.4185 20.2949V19.8705H13.4185ZM13.3395 20.0481L15.0036 21.1575L15.098 21.0159L15.1672 20.8604L13.3395 20.0481ZM13.2211 20.2257L14.6353 21.64L14.7754 21.4999L14.8852 21.3351L13.2211 20.2257ZM13.0632 20.3836L13.9576 22.1725L14.2479 22.0273L14.4774 21.7978L13.0632 20.3836ZM12.8264 20.5021L13.3114 22.4423L13.5244 22.3891L13.7208 22.2909L12.8264 20.5021ZM12.7474 20.5218V22.5218H12.9936L13.2325 22.4621L12.7474 20.5218ZM9.66848 20.5218L8.9257 22.3787L9.28332 22.5218H9.66848V20.5218ZM9.47111 20.4428L8.24323 22.0215L8.46614 22.1949L8.72833 22.2998L9.47111 20.4428ZM9.29348 20.3047L7.65502 21.4516L7.82779 21.6984L8.0656 21.8834L9.29348 20.3047ZM9.15532 20.1073L7.27574 20.7908L7.36577 21.0384L7.51686 21.2542L9.15532 20.1073ZM9.07638 19.8902L7.11522 20.2824L7.14496 20.4312L7.19679 20.5737L9.07638 19.8902ZM9.05664 19.7915H7.05664V19.9896L7.09548 20.1838L9.05664 19.7915ZM9.05664 19.535L7.11636 19.0499L7.05664 19.2887V19.535H9.05664ZM9.11585 19.2981L7.327 18.4037L7.22881 18.6L7.17557 18.813L9.11585 19.2981ZM9.23427 19.0613L7.91726 17.5561L7.62129 17.8151L7.44542 18.1668L9.23427 19.0613ZM9.39217 18.9231L8.49774 17.1343L8.26825 17.249L8.07516 17.418L9.39217 18.9231ZM9.58954 18.8244L8.95708 16.9271L8.82224 16.972L8.69511 17.0356L9.58954 18.8244ZM9.64875 20.8047H9.96454V16.8047H9.64875V20.8047ZM9.58684 20.7687L11.6395 21.1634L12.3949 17.2354L10.3422 16.8407L9.58684 20.7687ZM11.6172 21.159L12.5844 21.3564L13.3842 17.4372L12.4171 17.2398L11.6172 21.159ZM12.4096 21.3124L12.6069 21.3717L13.7563 17.5404L13.559 17.4811L12.4096 21.3124ZM12.0722 21.1201L12.1907 21.1991L14.4095 17.8709L14.291 17.7919L12.0722 21.1201ZM11.6726 20.6974L11.7713 20.8356L15.0262 18.5106L14.9275 18.3725L11.6726 20.6974ZM11.5014 20.3056L11.5211 20.3648L15.3158 19.0999L15.2961 19.0407L11.5014 20.3056ZM11.4185 19.7323V19.8705H15.4185V19.7323H11.4185ZM11.5909 19.0582L11.5119 19.2358L15.1672 20.8604L15.2461 20.6828L11.5909 19.0582ZM11.6754 18.9387L11.557 19.1163L14.8852 21.3351L15.0036 21.1575L11.6754 18.9387ZM11.8069 18.8115L11.649 18.9694L14.4774 21.7978L14.6353 21.64L11.8069 18.8115ZM12.1688 18.5948L11.932 18.7132L13.7208 22.2909L13.9576 22.1725L12.1688 18.5948ZM12.3413 18.5618L12.2624 18.5815L13.2325 22.4621L13.3114 22.4423L12.3413 18.5618ZM12.7474 18.5218H9.66848V22.5218H12.7474V18.5218ZM10.4113 18.6648L10.2139 18.5859L8.72833 22.2998L8.9257 22.3787L10.4113 18.6648ZM10.699 18.8641L10.5214 18.726L8.0656 21.8834L8.24323 22.0215L10.699 18.8641ZM10.9319 19.1578L10.7938 18.9604L7.51686 21.2542L7.65502 21.4516L10.9319 19.1578ZM11.0349 19.4238L10.956 19.2067L7.19679 20.5737L7.27574 20.7908L11.0349 19.4238ZM11.0375 19.498L11.0178 19.3993L7.09548 20.1838L7.11522 20.2824L11.0375 19.498ZM11.0566 19.7915V19.535H7.05664V19.7915H11.0566ZM10.9969 20.02L11.0561 19.7832L7.17557 18.813L7.11636 19.0499L10.9969 20.02ZM10.9047 20.1925L11.0231 19.9557L7.44542 18.1668L7.327 18.4037L10.9047 20.1925ZM10.5513 20.5664L10.7092 20.4283L8.07516 17.418L7.91726 17.5561L10.5513 20.5664ZM10.2866 20.712L10.484 20.6133L8.69511 17.0356L8.49774 17.1343L10.2866 20.712ZM10.222 20.7218L10.2812 20.7021L9.01629 16.9073L8.95708 16.9271L10.222 20.7218Z" fill="black" mask="url(#path-11-inside-4_1597_3965)"/>
<mask id="path-13-inside-5_1597_3965" fill="white">
<path d="M28.2221 13.5H30.2747L30.2945 13.5197V14.6447L30.2155 14.6842L28.301 15H28.1826V13.5197L28.2221 13.5Z"/>
</mask>
<path d="M28.2221 13.5H30.2747L30.2945 13.5197V14.6447L30.2155 14.6842L28.301 15H28.1826V13.5197L28.2221 13.5Z" fill="black"/>
<path d="M28.2221 13.5V11.5H27.75L27.3277 11.7111L28.2221 13.5ZM30.2747 13.5L31.6889 12.0858L31.1031 11.5H30.2747V13.5ZM30.2945 13.5197H32.2945V12.6913L31.7087 12.1055L30.2945 13.5197ZM30.2945 14.6447L31.1889 16.4336L32.2945 15.8808V14.6447H30.2945ZM30.2155 14.6842L30.541 16.6575L30.8394 16.6083L31.1099 16.4731L30.2155 14.6842ZM28.301 15V17H28.4649L28.6265 16.9733L28.301 15ZM28.1826 15H26.1826V17H28.1826V15ZM28.1826 13.5197L27.2882 11.7309L26.1826 12.2837V13.5197H28.1826ZM28.2221 15.5H30.2747V11.5H28.2221V15.5ZM28.8605 14.9142L28.8802 14.934L31.7087 12.1055L31.6889 12.0858L28.8605 14.9142ZM28.2945 13.5197V14.6447H32.2945V13.5197H28.2945ZM29.4 12.8559L29.3211 12.8954L31.1099 16.4731L31.1889 16.4336L29.4 12.8559ZM29.89 12.7109L27.9755 13.0267L28.6265 16.9733L30.541 16.6575L29.89 12.7109ZM28.301 13H28.1826V17H28.301V13ZM30.1826 15V13.5197H26.1826V15H30.1826ZM29.077 15.3086L29.1165 15.2889L27.3277 11.7111L27.2882 11.7309L29.077 15.3086Z" fill="white" mask="url(#path-13-inside-5_1597_3965)"/>
<path d="M6.11683 13.5H7.77472L7.79446 13.5197V15H7.6563L6.78788 14.8421L5.72209 14.6645L5.68262 14.625V13.5395L5.70235 13.5197L6.11683 13.5Z" fill="white"/>
<path d="M104.504 12.1501V15.2019H96.1504V12.1501H104.504ZM98.0468 8.64062H101.894V22.2972C101.894 22.6723 101.948 22.9647 102.056 23.1745C102.165 23.378 102.315 23.521 102.508 23.6037C102.707 23.6863 102.935 23.7277 103.194 23.7277C103.375 23.7277 103.555 23.7118 103.736 23.68C103.917 23.6418 104.055 23.6132 104.151 23.5941L104.757 26.6173C104.564 26.6808 104.293 26.754 103.944 26.8366C103.595 26.9256 103.17 26.9797 102.67 26.9987C101.743 27.0369 100.931 26.9065 100.232 26.6077C99.5399 26.3089 99.001 25.8448 98.6157 25.2154C98.2304 24.586 98.0408 23.7912 98.0468 22.8312V8.64062Z" fill="black"/>
<path d="M85.4076 18.3393V26.8078H81.5605V12.1595H85.227V14.7439H85.3895C85.6965 13.892 86.2113 13.2181 86.9337 12.7221C87.6562 12.2199 88.5321 11.9688 89.5616 11.9688C90.5249 11.9688 91.3647 12.1913 92.0812 12.6363C92.7976 13.0814 93.3545 13.7171 93.7518 14.5437C94.1492 15.3638 94.3478 16.3429 94.3478 17.481V26.8078H90.5008V18.2057C90.5068 17.3093 90.2901 16.6099 89.8506 16.1077C89.4111 15.599 88.8061 15.3447 88.0355 15.3447C87.5177 15.3447 87.0602 15.4624 86.6628 15.6976C86.2715 15.9328 85.9645 16.2761 85.7417 16.7276C85.525 17.1726 85.4136 17.7098 85.4076 18.3393Z" fill="black"/>
<path d="M72.937 27.0939C71.5101 27.0939 70.282 26.7888 69.2525 26.1784C68.229 25.5617 67.4404 24.6907 66.8865 23.5654C66.3326 22.4337 66.0557 21.0954 66.0557 19.5504C66.0557 18.0436 66.3326 16.7212 66.8865 15.5832C67.4404 14.4451 68.22 13.5582 69.2254 12.9224C70.2368 12.2866 71.4228 11.9688 72.7834 11.9688C73.6985 11.9688 74.5504 12.1245 75.3391 12.436C76.1338 12.7412 76.8261 13.2022 77.4161 13.8189C78.0121 14.4356 78.4757 15.2112 78.8068 16.1458C79.138 17.0741 79.3035 18.1612 79.3035 19.4074V20.5232H67.5909V18.0055H75.6823C75.6823 17.4206 75.5618 16.9024 75.321 16.451C75.0802 15.9996 74.7461 15.6467 74.3186 15.3924C73.8972 15.1317 73.4066 15.0014 72.8467 15.0014C72.2627 15.0014 71.7449 15.1445 71.2934 15.4306C70.8479 15.7103 70.4987 16.0886 70.2458 16.5654C69.993 17.0359 69.8636 17.5604 69.8575 18.139V20.5327C69.8575 21.2575 69.984 21.8837 70.2368 22.4114C70.4957 22.9391 70.8599 23.346 71.3295 23.6321C71.7991 23.9182 72.356 24.0613 73.0002 24.0613C73.4276 24.0613 73.8189 23.9977 74.1741 23.8705C74.5294 23.7434 74.8334 23.5526 75.0862 23.2983C75.3391 23.044 75.5317 22.7325 75.6642 22.3637L79.2222 22.6117C79.0416 23.5145 78.6714 24.3029 78.1115 24.9768C77.5576 25.6444 76.8412 26.1657 75.9622 26.5408C75.0892 26.9095 74.0808 27.0939 72.937 27.0939Z" fill="black"/>
<path d="M54.0303 20.008H57.3536L59.0243 22.2778L60.6678 24.2995L63.7653 28.4003H60.1169L57.9857 25.6347L56.893 23.9944L54.0303 20.008ZM64.0452 17.0326C64.0452 19.1624 63.663 20.9744 62.8984 22.4685C62.1398 23.9626 61.1043 25.1038 59.7918 25.8922C58.4854 26.6742 57.0165 27.0652 55.3849 27.0652C53.7414 27.0652 52.2664 26.671 50.9599 25.8826C49.6535 25.0943 48.621 23.953 47.8625 22.459C47.1039 20.9649 46.7246 19.1561 46.7246 17.0326C46.7246 14.9027 47.1039 13.0908 47.8625 11.5967C48.621 10.1026 49.6535 8.96456 50.9599 8.18255C52.2664 7.39418 53.7414 7 55.3849 7C57.0165 7 58.4854 7.39418 59.7918 8.18255C61.1043 8.96456 62.1398 10.1026 62.8984 11.5967C63.663 13.0908 64.0452 14.9027 64.0452 17.0326ZM60.0808 17.0326C60.0808 15.6529 59.8852 14.4895 59.4938 13.5422C59.1085 12.5949 58.5637 11.8764 57.8593 11.3869C57.1549 10.8973 56.3301 10.6525 55.3849 10.6525C54.4397 10.6525 53.6149 10.8973 52.9106 11.3869C52.2062 11.8764 51.6583 12.5949 51.267 13.5422C50.8817 14.4895 50.689 15.6529 50.689 17.0326C50.689 18.4122 50.8817 19.5757 51.267 20.523C51.6583 21.4703 52.2062 22.1888 52.9106 22.6783C53.6149 23.1679 54.4397 23.4126 55.3849 23.4126C56.3301 23.4126 57.1549 23.1679 57.8593 22.6783C58.5637 22.1888 59.1085 21.4703 59.4938 20.523C59.8852 19.5757 60.0808 18.4122 60.0808 17.0326Z" fill="black"/>
</svg>
