<svg width="74" height="74" viewBox="0 0 74 74" fill="none" xmlns="http://www.w3.org/2000/svg">
<path d="M35.9527 0H37.977L39.556 0.0809759L41.3375 0.242928L42.8355 0.445367L44.617 0.769271L45.8721 1.05269L47.6535 1.53854L49.111 2.0244L50.2447 2.42928L51.5403 2.95562L52.9573 3.60343L54.4149 4.33221L55.3866 4.89904L56.2368 5.3849L57.249 6.0327L58.1397 6.64002L58.8685 7.16637L59.9211 7.97612L60.3665 8.34052L60.8928 8.78588L61.4596 9.27174L62.4313 10.1625L63.9699 11.701L64.2533 12.0249L64.6986 12.5108L65.063 12.9561L65.5893 13.5635L66.1157 14.2518L66.561 14.8186L67.0874 15.5474L67.6947 16.4381L68.3425 17.4503L68.8283 18.2601L69.3547 19.1913L69.8405 20.1225L70.4073 21.2562L71.0146 22.6328L71.5815 24.0903L72.2293 25.9933L72.7151 27.7342L73.1605 29.7181L73.4439 31.3782L73.6463 32.9977L73.8083 35.0221L73.8487 36.3582V37.4918L73.8083 38.8279L73.6868 40.4474L73.5653 41.5406L73.4034 42.7148L73.1605 44.1319L72.8366 45.6299L72.3912 47.2899L71.9458 48.707L71.541 49.8811L70.9742 51.2982L70.3264 52.7558L69.4356 54.5373L68.8688 55.509L68.5449 56.0758L68.0591 56.8451L67.5327 57.6548L67.0469 58.3431L66.5206 59.0719L66.1157 59.5982L65.5893 60.2461L65.2654 60.6509L64.7391 61.2583L64.0103 62.068L63.4435 62.6753L62.3099 63.809L61.986 64.0924L61.4192 64.6188L60.9738 64.9831L60.5689 65.3475L60.0021 65.7929L59.3948 66.2788L58.747 66.7646L57.9373 67.3314L57.087 67.8983L56.1963 68.4651L55.1436 69.0724L53.9695 69.7202L52.7549 70.3275L51.2973 70.9754L49.8398 71.5422L48.3418 72.0685L46.6818 72.5544L45.0623 72.9593L43.4023 73.2832L42.1067 73.4856L40.3253 73.688L38.6653 73.8095L37.4912 73.85H36.2766L35.062 73.8095L32.9971 73.6476L31.3776 73.4451L29.5152 73.1212L27.6123 72.6758L26.1548 72.271L24.5353 71.7446L22.8348 71.0968L21.7417 70.611L20.77 70.1656L19.3934 69.4773L18.4217 68.9105L17.6929 68.5056L16.8832 67.9792L16.3164 67.6149L14.9398 66.6431L14.373 66.1978L13.8466 65.7929L13.1988 65.2666L12.794 64.9022L12.3486 64.5378L11.7008 63.9305L11.0125 63.2826L10.2028 62.4729L9.91938 62.149L9.5145 61.7441L9.15012 61.2987L8.70476 60.8129L8.34037 60.3675L7.81404 59.7197L7.32819 59.0719L6.76137 58.3026L6.11357 57.3714L5.7087 56.7236L5.22286 55.9543L4.69652 55.0231L4.29165 54.2943L3.60337 52.9582L3.03654 51.7031L2.5507 50.5289L2.02436 49.1119L1.53852 47.6138L1.05267 45.8323L0.688283 44.1723L0.404873 42.5528L0.161949 40.6094L0.0404873 38.9899L0 38.0587V35.7104L0.0809745 34.1718L0.202436 32.8357L0.404873 31.2567L0.728771 29.4752L1.09316 27.8557L1.37657 26.803L1.70046 25.7098L2.30777 23.9284L2.79362 22.7137L3.19849 21.7825L3.72483 20.6488L4.21067 19.6771L4.69652 18.7864L5.34432 17.6932L5.83016 16.924L6.3565 16.1142L6.88283 15.3854L7.28771 14.8186L7.69258 14.2922L8.17842 13.6849L8.46184 13.3205L8.82622 12.9157L9.19061 12.4703L9.63597 11.9844L9.79792 11.782H9.87889L9.95986 11.62L10.6077 10.9722L10.8911 10.6483L11.3769 10.203L11.7413 9.83857L12.0652 9.55515L12.5915 9.0693L13.0369 8.70491L13.6037 8.21905L14.1301 7.81417L14.6969 7.3688L15.4256 6.84246L16.2354 6.27563L17.1666 5.66831L18.0168 5.14197L19.029 4.57514L19.4744 4.33221L20.4056 3.84635L21.0534 3.52245L22.4704 2.87464L23.928 2.30781L24.6972 2.0244L26.0738 1.57903L27.6933 1.13366L29.4342 0.728783L31.4991 0.364391L33.24 0.161952L34.8595 0.0404879L35.9527 0Z" fill="white"/>
<mask id="path-2-inside-1_1597_3891" fill="white">
<path d="M24.8541 20.0781H48.9444L49.8351 20.1996L50.6854 20.4425L51.3332 20.7259L51.981 21.1308L52.6288 21.6572L53.1146 22.1835L53.479 22.7098L53.7624 23.1957L54.0054 23.803L54.2483 24.6533L54.8556 27.5279L55.1795 29.026L55.22 29.1069L56.5966 29.1474L56.5561 27.8113V27.0421L56.6371 26.7586L56.8395 26.5562L57.0825 26.4347L61.9005 26.3942L63.0342 26.4347L63.2771 26.5967L63.4391 26.7991L63.4795 27.0016V30.686L63.3581 31.0099L63.1556 31.1718L62.5078 31.3338L60.119 31.7387L57.4064 32.184H57.0825L56.7586 32.0221L56.6371 31.8601L56.5966 31.7387V30.443H55.4629L55.7868 31.7387L56.1512 33.3177L56.3537 33.4796L56.8395 33.763L57.4064 34.1679L57.8922 34.6133L58.2971 35.0182L58.7829 35.7065L59.1069 36.2733L59.4308 37.0426L59.6332 37.8523L59.7547 38.7431L60.119 42.8728L60.2 44.2899V51.0919L60.0786 51.8612L59.9166 52.266L59.6332 52.7114L59.1473 53.1973L58.7829 53.4402L58.2566 53.6426L57.9327 53.7236L53.3981 53.7641H52.1834L51.6166 53.6831L50.9688 53.4402L50.5234 53.1568L50.1185 52.7519L49.7946 52.1851L49.6327 51.7397L49.5517 51.2133L49.5112 49.9177H24.3277L24.2872 51.1729L24.2062 51.7397L23.9633 52.347L23.5584 52.9138L23.2345 53.1973L22.7892 53.4807L22.2223 53.6831L21.615 53.7641H16.2706L15.7443 53.6831L15.1774 53.4807L14.7726 53.2377L14.3677 52.8734L14.1248 52.5494L13.8818 52.0636L13.7604 51.5777L13.7199 51.2133L13.6794 49.3509V44.7353L13.7604 42.9133L14.1248 38.8645L14.2462 37.9333L14.4487 37.1235L14.6511 36.5972L14.975 35.9494L15.3799 35.3421L15.7443 34.8967L16.3516 34.2894L17.0804 33.763L17.7282 33.3987L17.8496 32.9128L18.3355 30.443L17.2828 30.4835V31.5767L17.1209 31.9411L16.8374 32.1435L16.554 32.184L14.813 31.9006L11.1286 31.2933L10.6023 31.1313L10.3999 30.8884L10.3594 30.7265V26.8396L10.4808 26.6372L10.8047 26.4347L11.1691 26.3942H16.3921L16.8374 26.4347L17.0804 26.5967L17.2423 26.8396L17.2828 27.4874V29.1474L18.6189 29.1069L18.8214 28.2567L19.4287 25.4225L19.7526 24.0459L19.9955 23.4386L20.2789 22.8718L20.6028 22.3859L21.0887 21.8191L21.3721 21.5357L21.9389 21.0903L22.6677 20.645L23.4775 20.3211L24.1658 20.1591L24.8541 20.0781Z"/>
</mask>
<path d="M24.8541 20.0781H48.9444L49.8351 20.1996L50.6854 20.4425L51.3332 20.7259L51.981 21.1308L52.6288 21.6572L53.1146 22.1835L53.479 22.7098L53.7624 23.1957L54.0054 23.803L54.2483 24.6533L54.8556 27.5279L55.1795 29.026L55.22 29.1069L56.5966 29.1474L56.5561 27.8113V27.0421L56.6371 26.7586L56.8395 26.5562L57.0825 26.4347L61.9005 26.3942L63.0342 26.4347L63.2771 26.5967L63.4391 26.7991L63.4795 27.0016V30.686L63.3581 31.0099L63.1556 31.1718L62.5078 31.3338L60.119 31.7387L57.4064 32.184H57.0825L56.7586 32.0221L56.6371 31.8601L56.5966 31.7387V30.443H55.4629L55.7868 31.7387L56.1512 33.3177L56.3537 33.4796L56.8395 33.763L57.4064 34.1679L57.8922 34.6133L58.2971 35.0182L58.7829 35.7065L59.1069 36.2733L59.4308 37.0426L59.6332 37.8523L59.7547 38.7431L60.119 42.8728L60.2 44.2899V51.0919L60.0786 51.8612L59.9166 52.266L59.6332 52.7114L59.1473 53.1973L58.7829 53.4402L58.2566 53.6426L57.9327 53.7236L53.3981 53.7641H52.1834L51.6166 53.6831L50.9688 53.4402L50.5234 53.1568L50.1185 52.7519L49.7946 52.1851L49.6327 51.7397L49.5517 51.2133L49.5112 49.9177H24.3277L24.2872 51.1729L24.2062 51.7397L23.9633 52.347L23.5584 52.9138L23.2345 53.1973L22.7892 53.4807L22.2223 53.6831L21.615 53.7641H16.2706L15.7443 53.6831L15.1774 53.4807L14.7726 53.2377L14.3677 52.8734L14.1248 52.5494L13.8818 52.0636L13.7604 51.5777L13.7199 51.2133L13.6794 49.3509V44.7353L13.7604 42.9133L14.1248 38.8645L14.2462 37.9333L14.4487 37.1235L14.6511 36.5972L14.975 35.9494L15.3799 35.3421L15.7443 34.8967L16.3516 34.2894L17.0804 33.763L17.7282 33.3987L17.8496 32.9128L18.3355 30.443L17.2828 30.4835V31.5767L17.1209 31.9411L16.8374 32.1435L16.554 32.184L14.813 31.9006L11.1286 31.2933L10.6023 31.1313L10.3999 30.8884L10.3594 30.7265V26.8396L10.4808 26.6372L10.8047 26.4347L11.1691 26.3942H16.3921L16.8374 26.4347L17.0804 26.5967L17.2423 26.8396L17.2828 27.4874V29.1474L18.6189 29.1069L18.8214 28.2567L19.4287 25.4225L19.7526 24.0459L19.9955 23.4386L20.2789 22.8718L20.6028 22.3859L21.0887 21.8191L21.3721 21.5357L21.9389 21.0903L22.6677 20.645L23.4775 20.3211L24.1658 20.1591L24.8541 20.0781Z" fill="black" stroke="black" stroke-width="4" mask="url(#path-2-inside-1_1597_3891)"/>
<path d="M54.1006 48.9365L54.0352 48.8213L53.873 48.5381L53.8076 48.4248L53.6963 48.3574L53.4932 48.2354L53.4033 48.1816L53.2979 48.168L52.9746 48.1279L52.9443 48.124H52.915L44.8223 48.085L44.7881 45.6211V45.5752L44.7783 45.5303L44.6973 45.125L44.6631 44.9521L44.5273 44.8389L44.2842 44.6367L44.1572 44.5303L43.9912 44.5215L43.2217 44.4805H30.3779L30.3555 44.4824L29.9102 44.5225L29.8018 44.5322L29.708 44.5859L29.4238 44.748L29.334 44.7998L29.2725 44.8828L29.1504 45.0449L29.083 45.1348L29.0605 45.2461L29.0195 45.4492L29.0107 45.4971V48.085L20.6816 48.124H20.5918L20.5088 48.1562L20.1846 48.2773L20.042 48.3311L19.9531 48.4551L19.751 48.7383L19.6572 48.8682V49.5264L19.7236 49.6416L19.8857 49.9248L19.9531 50.043L20.0713 50.1104L20.3545 50.2725L20.4658 50.3359L20.5947 50.3389L22.4922 50.3711V51.165L22.3857 51.459L22.2168 51.6826L22.0273 51.8457L21.8145 51.9521L21.7275 51.9707H16.3262L16.0938 51.9189L15.8838 51.792L15.8682 51.7607L15.7295 51.4844H15.623L15.5693 51.3965L15.5156 51.125V44.292L15.5947 42.7158L15.877 39.4863L15.9961 38.375L16.1436 37.7139L16.3242 37.2051L16.6514 36.5869L17.0176 36.1104L17.1455 35.9658H17.3604L17.4639 35.6504L17.9678 35.2734L18.4795 34.9814L18.9863 34.7637L19.6855 34.5801L20.3047 34.5078H53.7217L54.3682 34.6152L55.0273 34.835L55.624 35.1328L56.1309 35.46L56.5049 35.7969L56.668 35.96L56.9678 36.2969L57.2959 36.8086L57.5879 37.3906L57.8086 38.0898L57.9219 38.8848L58.2852 43L58.3643 44.4941V51.0439L58.3057 51.334L58.2012 51.543L58.0439 51.7266L57.7822 51.9014L57.5977 51.9707H52.0303L51.7588 51.8721L51.4453 51.5869L51.3623 51.4424L51.2666 50.9268V50.3691L52.8818 50.3389L52.9258 50.3379L53.375 50.248L53.499 50.2227L53.5967 50.1416L53.8398 49.9395L53.9199 49.8721L53.9668 49.7783L54.0479 49.6172L54.1006 49.5117V48.9365Z" fill="black" stroke="white"/>
<path d="M48.7578 21.8281L49.3682 21.8994L49.9727 22.0771L50.5605 22.3711L50.96 22.625L51.3242 22.917L51.6357 23.2285L51.96 23.6963L52.2461 24.2344L52.4678 24.9775L52.8281 26.6553L53.8809 31.6738V31.6768L54 32.2344L53.7783 32.2461H50.7676L19.8057 32.2051L21.1738 25.6816L21.1729 25.6807L21.4053 24.6748L21.624 24.0889L21.875 23.624L22.2344 23.1562L22.666 22.7246L23.0146 22.4805L23.3564 22.292L23.6357 22.1514L24.1338 21.9736L24.7021 21.8672L47.7715 21.8281H48.7578Z" fill="black" stroke="white"/>
<path d="M54.3545 38.2812L54.7637 38.3623L55.0596 38.4854L55.3457 38.6855L55.4199 38.7441L55.6768 39.1025L55.8779 39.5928L55.9639 40.0488V40.6514L55.8486 41.166L55.626 41.6406L55.3896 41.9297L55.1973 42.0977L54.9736 42.2314L54.5322 42.3701L54.3223 42.3945H48.2412L47.874 42.3154L47.4932 42.1523L47.2207 41.9619L46.9629 41.7305L46.7217 41.3545L46.5547 40.9385L46.5459 40.8818V40.4277L46.6279 40.1602L46.7715 39.9229L46.835 39.8457L47.0371 39.7041L47.2617 39.6143L48.0078 39.4355L50.9385 38.8701L53.8555 38.3066L54.0391 38.2812H54.3545Z" fill="white" stroke="white" stroke-width="2"/>
<path d="M20.3535 38.3672L21.6855 38.5957V38.5947L24.8174 39.1973V39.1982L26.7881 39.5918L27.1904 39.7158L27.3984 39.8193L27.5645 39.9688L27.7119 40.2646L27.7383 40.3652V40.6826L27.6318 41.1074L27.4043 41.5615L27.1846 41.8369L26.9795 42.042L26.6426 42.25L26.3691 42.3496L26.0996 42.3994H20.0283L19.6592 42.3418L19.2529 42.207L19.001 42.0469L18.7695 41.8154L18.5488 41.4287L18.4043 41.0508L18.3203 40.6289V40.0898L18.4062 39.6309L18.5801 39.1982L18.751 38.9287L19.0322 38.6475L19.2705 38.5039L19.5967 38.3682L19.6064 38.3672H20.3535Z" fill="white" stroke="white" stroke-width="2"/>
<path d="M42.0322 47.2344V47.583H31.8047V47.2344H42.0322Z" fill="white" stroke="white" stroke-width="2"/>
<path d="M54.2432 39.5215L54.4375 39.6025L54.5293 39.6836L54.665 39.8965L54.7422 40.1484V40.5361L54.6709 40.7666L54.5459 40.9453L54.4277 41.0488L54.3057 41.1035H48.2842L48.2256 41.0801L47.9551 40.832L47.9326 40.7998L48.209 40.7256L51.3271 40.0869L51.334 40.0859L53.9746 39.5244L54.0791 39.5068L54.2432 39.5215Z" fill="black" stroke="black" stroke-width="2"/>
<path d="M20.3438 39.5781L24.4512 40.3672V40.3682L26.3848 40.7617L26.4023 40.7666L26.3438 40.8555L26.2041 40.9951L25.9951 41.1006H20.0273L19.9277 41.0605L19.7959 40.958L19.6758 40.7861L19.584 40.5342L19.5781 40.502V40.1973L19.6436 39.9375L19.748 39.7266L19.8262 39.6582L19.9883 39.5781H20.3438Z" fill="white" stroke="black" stroke-width="2"/>
<path d="M61.1436 28.6875V29.2412L58.8115 29.626V28.6875H61.1436Z" fill="black" stroke="black" stroke-width="2"/>
<path d="M14.9883 28.6875V29.6172L14.1025 29.457L14.0957 29.4551L14.0879 29.4541L12.6562 29.2148V28.6875H14.9883Z" fill="white" stroke="black" stroke-width="2"/>
</svg>
